<mxfile host="app.diagrams.net" modified="2022-05-26T20:57:13.131Z" agent="5.0 (Windows NT 10.0; Win64; x64) AppleWebKit/537.36 (KHTML, like Gecko) Chrome/101.0.4951.64 Safari/537.36 Edg/101.0.1210.53" etag="9GgH2t7vYABzMjc50hq9" version="18.1.3" type="github">
  <diagram id="LY0GhdTmVqlvBuymsZOX" name="Page-1">
    <mxGraphModel dx="1038" dy="579" grid="1" gridSize="10" guides="1" tooltips="1" connect="1" arrows="1" fold="1" page="1" pageScale="1" pageWidth="850" pageHeight="1100" math="0" shadow="0">
      <root>
        <mxCell id="0" />
        <mxCell id="1" parent="0" />
        <mxCell id="k2KA56HlH97TxQyiSHu6-1" value="Bark_Client" style="whiteSpace=wrap;html=1;align=center;" vertex="1" parent="1">
          <mxGeometry x="340" y="260" width="100" height="40" as="geometry" />
        </mxCell>
        <mxCell id="k2KA56HlH97TxQyiSHu6-2" value="State" style="ellipse;whiteSpace=wrap;html=1;align=center;" vertex="1" parent="1">
          <mxGeometry x="200" y="330" width="100" height="40" as="geometry" />
        </mxCell>
        <mxCell id="k2KA56HlH97TxQyiSHu6-3" value="" style="endArrow=none;html=1;rounded=0;exitX=0.5;exitY=0;exitDx=0;exitDy=0;entryX=0.5;entryY=1;entryDx=0;entryDy=0;" edge="1" parent="1" source="k2KA56HlH97TxQyiSHu6-2" target="k2KA56HlH97TxQyiSHu6-1">
          <mxGeometry relative="1" as="geometry">
            <mxPoint x="340" y="290" as="sourcePoint" />
            <mxPoint x="500" y="290" as="targetPoint" />
          </mxGeometry>
        </mxCell>
        <mxCell id="k2KA56HlH97TxQyiSHu6-4" value="Phone_Number" style="ellipse;whiteSpace=wrap;html=1;align=center;" vertex="1" parent="1">
          <mxGeometry x="230" y="400" width="100" height="40" as="geometry" />
        </mxCell>
        <mxCell id="k2KA56HlH97TxQyiSHu6-5" value="" style="endArrow=none;html=1;rounded=0;exitX=0.5;exitY=0;exitDx=0;exitDy=0;entryX=0.5;entryY=1;entryDx=0;entryDy=0;" edge="1" parent="1" source="k2KA56HlH97TxQyiSHu6-4" target="k2KA56HlH97TxQyiSHu6-1">
          <mxGeometry relative="1" as="geometry">
            <mxPoint x="590" y="290" as="sourcePoint" />
            <mxPoint x="750" y="290" as="targetPoint" />
          </mxGeometry>
        </mxCell>
        <mxCell id="k2KA56HlH97TxQyiSHu6-6" value="&lt;span style=&quot;font-family: arial; font-size: 13px; text-align: left; background-color: rgb(255, 255, 255);&quot;&gt;Job_Type&lt;/span&gt;" style="ellipse;whiteSpace=wrap;html=1;align=center;" vertex="1" parent="1">
          <mxGeometry x="340" y="420" width="100" height="40" as="geometry" />
        </mxCell>
        <mxCell id="k2KA56HlH97TxQyiSHu6-7" value="" style="endArrow=none;html=1;rounded=0;exitX=0.5;exitY=0;exitDx=0;exitDy=0;entryX=0.5;entryY=1;entryDx=0;entryDy=0;" edge="1" parent="1" source="k2KA56HlH97TxQyiSHu6-6" target="k2KA56HlH97TxQyiSHu6-1">
          <mxGeometry relative="1" as="geometry">
            <mxPoint x="670" y="350" as="sourcePoint" />
            <mxPoint x="470" y="360" as="targetPoint" />
          </mxGeometry>
        </mxCell>
        <mxCell id="k2KA56HlH97TxQyiSHu6-8" value="&lt;span style=&quot;font-family: arial; font-size: 13px; text-align: left; background-color: rgb(255, 255, 255);&quot;&gt;Email&lt;/span&gt;" style="ellipse;whiteSpace=wrap;html=1;align=center;" vertex="1" parent="1">
          <mxGeometry x="430" y="470" width="100" height="40" as="geometry" />
        </mxCell>
        <mxCell id="k2KA56HlH97TxQyiSHu6-9" value="" style="endArrow=none;html=1;rounded=0;exitX=0.5;exitY=0;exitDx=0;exitDy=0;entryX=0.5;entryY=1;entryDx=0;entryDy=0;" edge="1" parent="1" source="k2KA56HlH97TxQyiSHu6-8" target="k2KA56HlH97TxQyiSHu6-1">
          <mxGeometry relative="1" as="geometry">
            <mxPoint x="780" y="370" as="sourcePoint" />
            <mxPoint x="390" y="290" as="targetPoint" />
          </mxGeometry>
        </mxCell>
        <mxCell id="k2KA56HlH97TxQyiSHu6-10" value="&lt;span style=&quot;font-family: Arial; font-size: 13px; text-align: left; background-color: rgb(255, 255, 255);&quot;&gt;Date_Received&lt;/span&gt;" style="ellipse;whiteSpace=wrap;html=1;align=center;" vertex="1" parent="1">
          <mxGeometry x="550" y="440" width="100" height="40" as="geometry" />
        </mxCell>
        <mxCell id="k2KA56HlH97TxQyiSHu6-11" value="" style="endArrow=none;html=1;rounded=0;exitX=0.5;exitY=0;exitDx=0;exitDy=0;entryX=0.5;entryY=1;entryDx=0;entryDy=0;" edge="1" parent="1" source="k2KA56HlH97TxQyiSHu6-10" target="k2KA56HlH97TxQyiSHu6-1">
          <mxGeometry relative="1" as="geometry">
            <mxPoint x="950" y="380" as="sourcePoint" />
            <mxPoint x="590" y="250" as="targetPoint" />
          </mxGeometry>
        </mxCell>
        <mxCell id="k2KA56HlH97TxQyiSHu6-12" value="&lt;span style=&quot;font-family: arial; font-size: 13px; text-align: left; background-color: rgb(255, 255, 255);&quot;&gt;Zip_Code&lt;/span&gt;" style="ellipse;whiteSpace=wrap;html=1;align=center;" vertex="1" parent="1">
          <mxGeometry x="640" y="270" width="100" height="40" as="geometry" />
        </mxCell>
        <mxCell id="k2KA56HlH97TxQyiSHu6-13" value="" style="endArrow=none;html=1;rounded=0;exitX=0;exitY=0.5;exitDx=0;exitDy=0;entryX=1;entryY=0.5;entryDx=0;entryDy=0;" edge="1" parent="1" source="k2KA56HlH97TxQyiSHu6-12" target="k2KA56HlH97TxQyiSHu6-1">
          <mxGeometry relative="1" as="geometry">
            <mxPoint x="1015.71" y="270" as="sourcePoint" />
            <mxPoint x="469.9957142857142" y="220" as="targetPoint" />
          </mxGeometry>
        </mxCell>
        <mxCell id="k2KA56HlH97TxQyiSHu6-14" value="&lt;div style=&quot;text-align: left;&quot;&gt;&lt;span style=&quot;background-color: initial; font-size: 13px;&quot;&gt;&lt;font face=&quot;arial&quot;&gt;Responded_Professional_Number&lt;/font&gt;&lt;/span&gt;&lt;/div&gt;" style="ellipse;whiteSpace=wrap;html=1;align=center;" vertex="1" parent="1">
          <mxGeometry x="600" y="350" width="210" height="80" as="geometry" />
        </mxCell>
        <mxCell id="k2KA56HlH97TxQyiSHu6-15" value="" style="endArrow=none;html=1;rounded=0;" edge="1" parent="1" source="k2KA56HlH97TxQyiSHu6-14" target="k2KA56HlH97TxQyiSHu6-1">
          <mxGeometry relative="1" as="geometry">
            <mxPoint x="960" y="300" as="sourcePoint" />
            <mxPoint x="680" y="250" as="targetPoint" />
          </mxGeometry>
        </mxCell>
        <mxCell id="k2KA56HlH97TxQyiSHu6-16" value="&lt;span style=&quot;font-family: arial; font-size: 13px; text-align: left; background-color: rgb(255, 255, 255);&quot;&gt;Area_Code&lt;/span&gt;" style="ellipse;whiteSpace=wrap;html=1;align=center;" vertex="1" parent="1">
          <mxGeometry x="615" y="180" width="100" height="40" as="geometry" />
        </mxCell>
        <mxCell id="k2KA56HlH97TxQyiSHu6-17" value="" style="endArrow=none;html=1;rounded=0;exitX=0;exitY=0.5;exitDx=0;exitDy=0;entryX=0.5;entryY=0;entryDx=0;entryDy=0;" edge="1" parent="1" source="k2KA56HlH97TxQyiSHu6-16" target="k2KA56HlH97TxQyiSHu6-1">
          <mxGeometry relative="1" as="geometry">
            <mxPoint x="985.71" y="190" as="sourcePoint" />
            <mxPoint x="410" y="200" as="targetPoint" />
          </mxGeometry>
        </mxCell>
        <mxCell id="k2KA56HlH97TxQyiSHu6-18" value="&lt;span style=&quot;font-family: arial; font-size: 13px; text-align: left; background-color: rgb(255, 255, 255);&quot;&gt;Map_Image&lt;/span&gt;" style="ellipse;whiteSpace=wrap;html=1;align=center;" vertex="1" parent="1">
          <mxGeometry x="475" y="120" width="100" height="40" as="geometry" />
        </mxCell>
        <mxCell id="k2KA56HlH97TxQyiSHu6-19" value="" style="endArrow=none;html=1;rounded=0;exitX=0.5;exitY=1;exitDx=0;exitDy=0;entryX=0.5;entryY=0;entryDx=0;entryDy=0;" edge="1" parent="1" source="k2KA56HlH97TxQyiSHu6-18" target="k2KA56HlH97TxQyiSHu6-1">
          <mxGeometry relative="1" as="geometry">
            <mxPoint x="765.71" y="90" as="sourcePoint" />
            <mxPoint x="190" y="100" as="targetPoint" />
          </mxGeometry>
        </mxCell>
        <mxCell id="k2KA56HlH97TxQyiSHu6-20" value="&lt;div style=&quot;text-align: left;&quot;&gt;&lt;font face=&quot;arial&quot;&gt;&lt;span style=&quot;font-size: 13px; background-color: rgb(255, 255, 255);&quot;&gt;Credits&lt;/span&gt;&lt;/font&gt;&lt;/div&gt;" style="ellipse;whiteSpace=wrap;html=1;align=center;" vertex="1" parent="1">
          <mxGeometry x="340" y="120" width="100" height="40" as="geometry" />
        </mxCell>
        <mxCell id="k2KA56HlH97TxQyiSHu6-21" value="" style="endArrow=none;html=1;rounded=0;exitX=0.5;exitY=1;exitDx=0;exitDy=0;entryX=0.5;entryY=0;entryDx=0;entryDy=0;" edge="1" parent="1" source="k2KA56HlH97TxQyiSHu6-20" target="k2KA56HlH97TxQyiSHu6-1">
          <mxGeometry relative="1" as="geometry">
            <mxPoint x="615.71" y="70" as="sourcePoint" />
            <mxPoint x="240" y="240" as="targetPoint" />
          </mxGeometry>
        </mxCell>
        <mxCell id="k2KA56HlH97TxQyiSHu6-22" value="&lt;div style=&quot;text-align: left;&quot;&gt;&lt;font face=&quot;arial&quot;&gt;&lt;span style=&quot;font-size: 13px; background-color: rgb(255, 255, 255);&quot;&gt;Details&lt;/span&gt;&lt;/font&gt;&lt;/div&gt;" style="ellipse;whiteSpace=wrap;html=1;align=center;" vertex="1" parent="1">
          <mxGeometry x="230" y="160" width="100" height="40" as="geometry" />
        </mxCell>
        <mxCell id="k2KA56HlH97TxQyiSHu6-23" value="" style="endArrow=none;html=1;rounded=0;exitX=0.5;exitY=1;exitDx=0;exitDy=0;" edge="1" parent="1" source="k2KA56HlH97TxQyiSHu6-22" target="k2KA56HlH97TxQyiSHu6-1">
          <mxGeometry relative="1" as="geometry">
            <mxPoint x="475.71000000000004" y="70" as="sourcePoint" />
            <mxPoint x="250" y="260" as="targetPoint" />
          </mxGeometry>
        </mxCell>
      </root>
    </mxGraphModel>
  </diagram>
</mxfile>
